<?xml version="1.0" standalone="no"?>
<!DOCTYPE svg PUBLIC "-//W3C//DTD SVG 20010904//EN"
 "http://www.w3.org/TR/2001/REC-SVG-20010904/DTD/svg10.dtd">
<svg version="1.0" xmlns="http://www.w3.org/2000/svg"
 width="225.000000pt" height="225.000000pt" viewBox="0 0 225.000000 225.000000"
 preserveAspectRatio="xMidYMid meet">
<metadata>
Created by potrace 1.14, written by Peter Selinger 2001-2017
</metadata>
<g transform="translate(0.000000,225.000000) scale(0.100000,-0.100000)"
fill="#000000" stroke="none">
<path d="M976 2169 c-103 -15 -208 -48 -311 -98 -281 -137 -480 -381 -562
-689 -23 -85 -26 -117 -26 -257 0 -141 3 -172 26 -260 57 -212 187 -416 357
-556 97 -80 263 -167 379 -198 244 -67 506 -45 728 59 593 278 794 1017 423
1554 -225 325 -627 501 -1014 445z m-209 -804 c34 -148 71 -315 81 -369 l18
-100 68 350 c37 192 70 359 73 372 5 21 9 22 113 22 60 0 111 -4 114 -9 7 -10
131 -603 141 -674 4 -27 11 -45 15 -40 3 4 19 67 34 138 15 72 50 231 79 355
l52 225 108 3 c69 2 107 -1 107 -8 0 -14 -268 -970 -280 -997 -9 -22 -15 -23
-108 -23 l-99 0 -23 108 c-13 59 -49 235 -80 392 l-58 285 -10 -55 c-6 -30
-42 -206 -79 -390 l-68 -335 -100 0 -100 0 -142 500 c-78 275 -142 506 -143
513 0 10 26 12 112 10 l112 -3 63 -270z"/>
</g>
</svg>
